<svg
  xmlns="http://www.w3.org/2000/svg"
  viewBox="0 0 64 64"
  role="img"
  aria-labelledby="title"
>
  <title>Modmux</title>
  <defs>
    <linearGradient id="modmux-gradient" x1="0%" y1="0%" x2="100%" y2="100%">
      <stop offset="0%" stop-color="#00f0ff" />
      <stop offset="100%" stop-color="#ff00aa" />
    </linearGradient>
  </defs>
  <rect width="64" height="64" rx="14" fill="url(#modmux-gradient)" />
  <path
    d="M16 18h6v28h-6V18zm8 0h2v28h-2V18zm4-6h2v34h-2V12zm6 0h2v34h-2V12zm4 6h6v28h-6V18z"
    fill="#080c10"
  />
  <path
    d="M16 18h6v28h-6V18zm8 0h2v28h-2V18zm4-6h2v34h-2V12zm6 0h2v34h-2V12zm4 6h6v28h-6V18z"
    fill="none"
    stroke="#00f0ff"
    stroke-width="1.5"
    opacity="0.4"
  />
</svg>
